paradisio.ufo
<glyph name="exclam" format="2">
	<advance width="262"/>
	<unicode hex="0021"/>
	<outline>
		<contour>
			<point x="179" y="185" type="line"/>
			<point x="179" y="650" type="line"/>
			<point x="83" y="650" type="line"/>
			<point x="83" y="185" type="line"/>
		</contour>
		<contour>
			<point x="131" y="-15" type="curve" smooth="yes"/>
			<point x="179" y="-15"/>
			<point x="192" y="3"/>
			<point x="192" y="43" type="curve" smooth="yes"/>
			<point x="192" y="81"/>
			<point x="179" y="99"/>
			<point x="131" y="99" type="curve" smooth="yes"/>
			<point x="83" y="99"/>
			<point x="70" y="81"/>
			<point x="70" y="43" type="curve" smooth="yes"/>
			<point x="70" y="3"/>
			<point x="83" y="-15"/>
		</contour>
	</outline>
</glyph>
<glyph name="numbersign" format="2">
	<advance width="811"/>
	<unicode hex="0023"/>
	<anchor x="218" y="500" name="_top"/>
	<anchor x="218" y="500" name="top"/>
	<outline>
		<contour>
			<point x="90" y="436" type="line"/>
			<point x="751" y="436" type="line"/>
			<point x="751" y="517" type="line"/>
			<point x="90" y="517" type="line"/>
		</contour>
		<contour>
			<point x="290" y="700" type="line"/>
			<point x="170" y="0" type="line"/>
			<point x="251" y="0" type="line"/>
			<point x="371" y="700" type="line"/>
		</contour>
		<contour>
			<point x="560" y="700" type="line"/>
			<point x="440" y="0" type="line"/>
			<point x="521" y="0" type="line"/>
			<point x="641" y="700" type="line"/>
		</contour>
		<contour>
			<point x="60" y="185" type="line"/>
			<point x="721" y="185" type="line"/>
			<point x="721" y="266" type="line"/>
			<point x="60" y="266" type="line"/>
		</contour>
	</outline>
</glyph>
<glyph name="ampersand" format="2">
	<advance width="710"/>
	<unicode hex="0026"/>
	<outline>
		<contour>
			<point x="110" y="502" type="curve" smooth="yes"/>
			<point x="110" y="396"/>
			<point x="166" y="347"/>
			<point x="517" y="83" type="curve"/>
			<point x="550" y="73" type="line"/>
			<point x="565" y="49"/>
			<point x="584" y="29"/>
			<point x="646" y="-15" type="curve"/>
			<point x="705" y="74" type="line"/>
			<point x="340" y="348"/>
			<point x="212" y="437"/>
			<point x="212" y="502" type="curve" smooth="yes"/>
			<point x="212" y="552"/>
			<point x="243" y="570"/>
			<point x="327" y="570" type="curve" smooth="yes"/>
			<point x="415" y="570"/>
			<point x="447" y="552"/>
			<point x="447" y="501" type="curve" smooth="yes"/>
			<point x="447" y="459" type="line"/>
			<point x="547" y="459" type="line"/>
			<point x="547" y="501" type="line" smooth="yes"/>
			<point x="547" y="606"/>
			<point x="494" y="665"/>
			<point x="327" y="665" type="curve" smooth="yes"/>
			<point x="165" y="665"/>
			<point x="110" y="606"/>
		</contour>
		<contour>
			<point x="294" y="280" type="curve"/>
			<point x="294" y="362" type="line"/>
			<point x="103" y="362"/>
			<point x="50" y="275"/>
			<point x="50" y="185" type="curve" smooth="yes"/>
			<point x="50" y="39"/>
			<point x="134" y="-15"/>
			<point x="342" y="-15" type="curve" smooth="yes"/>
			<point x="481" y="-15"/>
			<point x="558" y="16"/>
			<point x="596" y="96" type="curve"/>
			<point x="611" y="123"/>
			<point x="628" y="163"/>
			<point x="628" y="234" type="curve" smooth="yes"/>
			<point x="628" y="362" type="line"/>
			<point x="528" y="362" type="line"/>
			<point x="528" y="213" type="line" smooth="yes"/>
			<point x="528" y="114"/>
			<point x="478" y="80"/>
			<point x="342" y="80" type="curve" smooth="yes"/>
			<point x="208" y="80"/>
			<point x="150" y="111"/>
			<point x="150" y="185" type="curve" smooth="yes"/>
			<point x="150" y="250"/>
			<point x="196" y="280"/>
		</contour>
	</outline>
</glyph>
<glyph name="comma" format="2">
	<advance width="300"/>
	<unicode hex="002C"/>
	<outline>
		<contour>
			<point x="158" y="-15" type="line"/>
			<point x="89" y="-15"/>
			<point x="70" y="5"/>
			<point x="70" y="57" type="curve" smooth="yes"/>
			<point x="70" y="109"/>
			<point x="92" y="129"/>
			<point x="150" y="129" type="curve" smooth="yes"/>
			<point x="208" y="129"/>
			<point x="230" y="104"/>
			<point x="230" y="43" type="curve" smooth="yes"/>
			<point x="230" y="-9"/>
			<point x="217" y="-43"/>
			<point x="159" y="-154" type="curve"/>
			<point x="82" y="-154" type="line"/>
			<point x="130" y="-15" type="line"/>
			<point x="130" y="0" type="line"/>
		</contour>
	</outline>
</glyph>
<glyph name="hyphen" format="2">
	<advance width="340"/>
	<unicode hex="002D"/>
	<outline>
		<contour>
			<point x="315" y="225" type="line"/>
			<point x="315" y="306" type="line"/>
			<point x="25" y="306" type="line"/>
			<point x="25" y="225" type="line"/>
		</contour>
	</outline>
</glyph>
<glyph name="two" format="2">
	<advance width="660"/>
	<unicode hex="0032"/>
	<outline>
		<contour>
			<point x="74" y="467" type="curve"/>
			<point x="172" y="467" type="line"/>
			<point x="172" y="543"/>
			<point x="216" y="572"/>
			<point x="335" y="572" type="curve" smooth="yes"/>
			<point x="458" y="572"/>
			<point x="495" y="543"/>
			<point x="495" y="467" type="curve" smooth="yes"/>
			<point x="495" y="394"/>
			<point x="464" y="374"/>
			<point x="294" y="334" type="curve" smooth="yes"/>
			<point x="126" y="295"/>
			<point x="65" y="236"/>
			<point x="65" y="62" type="curve" smooth="yes"/>
			<point x="65" y="0" type="line"/>
			<point x="595" y="0" type="line"/>
			<point x="595" y="95" type="line"/>
			<point x="173" y="95" type="line"/>
			<point x="173" y="178"/>
			<point x="189" y="209"/>
			<point x="349" y="248" type="curve" smooth="yes"/>
			<point x="539" y="294"/>
			<point x="593" y="345"/>
			<point x="593" y="467" type="curve" smooth="yes"/>
			<point x="593" y="611"/>
			<point x="522" y="665"/>
			<point x="335" y="665" type="curve" smooth="yes"/>
			<point x="151" y="665"/>
			<point x="74" y="611"/>
		</contour>
	</outline>
</glyph>
<glyph name="four" format="2">
	<advance width="660"/>
	<unicode hex="0034"/>
	<outline>
		<contour>
			<point x="463" y="577" type="line"/>
			<point x="417" y="614" type="line"/>
			<point x="417" y="0" type="line"/>
			<point x="517" y="0" type="line"/>
			<point x="517" y="650" type="line"/>
			<point x="417" y="650" type="line"/>
			<point x="50" y="268" type="line"/>
			<point x="50" y="164" type="line"/>
			<point x="625" y="163" type="line"/>
			<point x="625" y="258" type="line"/>
			<point x="108" y="259" type="line"/>
			<point x="142" y="245" type="line"/>
		</contour>
	</outline>
</glyph>
<glyph name="E" format="2">
	<advance width="583"/>
	<unicode hex="0045"/>
	<anchor x="288" y="650" name="top"/>
	<outline>
		<contour>
			<point x="149" y="376" type="line"/>
			<point x="149" y="281" type="line"/>
			<point x="498" y="281" type="line"/>
			<point x="498" y="376" type="line"/>
		</contour>
		<contour>
			<point x="70" y="0" type="line"/>
			<point x="533" y="0" type="line"/>
			<point x="533" y="95" type="line"/>
			<point x="130" y="95" type="line"/>
			<point x="172" y="54" type="line"/>
			<point x="172" y="584" type="line"/>
			<point x="135" y="555" type="line"/>
			<point x="528" y="555" type="line"/>
			<point x="528" y="650" type="line"/>
			<point x="70" y="650" type="line"/>
		</contour>
	</outline>
</glyph>
<glyph name="G" format="2">
	<advance width="687"/>
	<unicode hex="0047"/>
	<outline>
		<contour>
			<point x="647" y="274" type="curve" smooth="yes"/>
			<point x="647" y="348" type="line"/>
			<point x="335" y="348" type="line"/>
			<point x="335" y="253" type="line"/>
			<point x="592" y="253" type="line"/>
			<point x="545" y="305" type="line"/>
			<point x="545" y="276" type="line" smooth="yes"/>
			<point x="545" y="135"/>
			<point x="499" y="80"/>
			<point x="351" y="80" type="curve" smooth="yes"/>
			<point x="195" y="80"/>
			<point x="144" y="141"/>
			<point x="144" y="324" type="curve" smooth="yes"/>
			<point x="144" y="510"/>
			<point x="194" y="570"/>
			<point x="346" y="570" type="curve" smooth="yes"/>
			<point x="449" y="570"/>
			<point x="502" y="546"/>
			<point x="532" y="477" type="curve"/>
			<point x="642" y="477" type="line"/>
			<point x="607" y="612"/>
			<point x="525" y="665"/>
			<point x="346" y="665" type="curve" smooth="yes"/>
			<point x="126" y="665"/>
			<point x="45" y="573"/>
			<point x="45" y="324" type="curve" smooth="yes"/>
			<point x="45" y="77"/>
			<point x="127" y="-15"/>
			<point x="351" y="-15" type="curve" smooth="yes"/>
			<point x="567" y="-15"/>
			<point x="647" y="71"/>
		</contour>
	</outline>
</glyph>
<glyph name="K" format="2">
	<advance width="643"/>
	<unicode hex="004B"/>
	<outline>
		<contour>
			<point x="70" y="650" type="line"/>
			<point x="70" y="0" type="line"/>
			<point x="172" y="0" type="line"/>
			<point x="172" y="650" type="line"/>
		</contour>
		<contour>
			<point x="125" y="280" type="line"/>
			<point x="152" y="174" type="line"/>
			<point x="619" y="650" type="line"/>
			<point x="484" y="650" type="line"/>
		</contour>
		<contour>
			<point x="327" y="363" type="line"/>
			<point x="218" y="335" type="line"/>
			<point x="503" y="0" type="line"/>
			<point x="638" y="0" type="line"/>
		</contour>
	</outline>
</glyph>
<glyph name="O" format="2">
	<advance width="710"/>
	<unicode hex="004F"/>
	<anchor x="355" y="650" name="top"/>
	<outline>
		<contour>
			<point x="355" y="-15" type="curve" smooth="yes"/>
			<point x="581" y="-15"/>
			<point x="665" y="77"/>
			<point x="665" y="325" type="curve" smooth="yes"/>
			<point x="665" y="573"/>
			<point x="581" y="665"/>
			<point x="355" y="665" type="curve" smooth="yes"/>
			<point x="129" y="665"/>
			<point x="45" y="573"/>
			<point x="45" y="325" type="curve" smooth="yes"/>
			<point x="45" y="77"/>
			<point x="129" y="-15"/>
		</contour>
		<contour>
			<point x="355" y="80" type="curve" smooth="yes"/>
			<point x="202" y="80"/>
			<point x="145" y="147"/>
			<point x="145" y="325" type="curve" smooth="yes"/>
			<point x="145" y="503"/>
			<point x="202" y="570"/>
			<point x="355" y="570" type="curve" smooth="yes"/>
			<point x="508" y="570"/>
			<point x="565" y="503"/>
			<point x="565" y="325" type="curve" smooth="yes"/>
			<point x="565" y="147"/>
			<point x="508" y="80"/>
		</contour>
	</outline>
</glyph>
<glyph name="Q" format="2">
	<advance width="710"/>
	<unicode hex="0051"/>
	<outline>
		<contour>
			<point x="330" y="12" type="line"/>
			<point x="457" y="-170" type="line"/>
			<point x="571" y="-170" type="line"/>
			<point x="428" y="12" type="line"/>
		</contour>
		<component base="O"/>
	</outline>
</glyph>
<glyph name="R" format="2">
	<advance width="652"/>
	<unicode hex="0052"/>
	<outline>
		<contour>
			<point x="318" y="275" type="line"/>
			<point x="495" y="0" type="line"/>
			<point x="622" y="0" type="line"/>
			<point x="441" y="275" type="line"/>
		</contour>
		<contour>
			<point x="339" y="325" type="curve" smooth="yes"/>
			<point x="147" y="325" type="line"/>
			<point x="147" y="230" type="line"/>
			<point x="364" y="230" type="line"/>
			<point x="364" y="240" type="line"/>
			<point x="528" y="240"/>
			<point x="598" y="304"/>
			<point x="598" y="442" type="curve" smooth="yes"/>
			<point x="598" y="584"/>
			<point x="520" y="650"/>
			<point x="339" y="650" type="curve" smooth="yes"/>
			<point x="70" y="650" type="line"/>
			<point x="70" y="0" type="line"/>
			<point x="173" y="0" type="line"/>
			<point x="173" y="590" type="line"/>
			<point x="152" y="555" type="line"/>
			<point x="339" y="555" type="line" smooth="yes"/>
			<point x="455" y="555"/>
			<point x="498" y="523"/>
			<point x="498" y="440" type="curve" smooth="yes"/>
			<point x="498" y="357"/>
			<point x="455" y="325"/>
		</contour>
	</outline>
</glyph>
<glyph name="S" format="2">
	<advance width="650"/>
	<unicode hex="0053"/>
	<guideline x="554" y="570" angle="0"/>
	<guideline x="282" y="80" angle="0"/>
	<outline>
		<contour>
			<point x="327" y="-15" type="curve" smooth="yes"/>
			<point x="521" y="-15"/>
			<point x="600" y="47"/>
			<point x="600" y="185" type="curve" smooth="yes"/>
			<point x="600" y="335"/>
			<point x="506" y="361"/>
			<point x="325" y="388" type="curve" smooth="yes"/>
			<point x="202" y="406"/>
			<point x="161" y="438"/>
			<point x="161" y="493" type="curve" smooth="yes"/>
			<point x="161" y="549"/>
			<point x="208" y="580"/>
			<point x="317" y="580" type="curve" smooth="yes"/>
			<point x="431" y="580"/>
			<point x="480" y="552"/>
			<point x="480" y="477" type="curve"/>
			<point x="580" y="477" type="line"/>
			<point x="580" y="621"/>
			<point x="506" y="675"/>
			<point x="323" y="675" type="curve" smooth="yes"/>
			<point x="137" y="675"/>
			<point x="61" y="606"/>
			<point x="61" y="485" type="curve" smooth="yes"/>
			<point x="61" y="383"/>
			<point x="116" y="317"/>
			<point x="323" y="285" type="curve" smooth="yes"/>
			<point x="460" y="264"/>
			<point x="500" y="247"/>
			<point x="500" y="183" type="curve" smooth="yes"/>
			<point x="500" y="115"/>
			<point x="449" y="80"/>
			<point x="327" y="80" type="curve" smooth="yes"/>
			<point x="202" y="80"/>
			<point x="150" y="117"/>
			<point x="150" y="215" type="curve"/>
			<point x="50" y="215" type="line"/>
			<point x="50" y="47"/>
			<point x="129" y="-15"/>
		</contour>
	</outline>
</glyph>
<glyph name="U" format="2">
	<advance width="690"/>
	<unicode hex="0055"/>
	<anchor x="345" y="650" name="top"/>
	<outline>
		<contour>
			<point x="65" y="264" type="line" smooth="yes"/>
			<point x="65" y="115"/>
			<point x="110" y="-15"/>
			<point x="345" y="-15" type="curve" smooth="yes"/>
			<point x="580" y="-15"/>
			<point x="625" y="115"/>
			<point x="625" y="264" type="curve" smooth="yes"/>
			<point x="625" y="650" type="line"/>
			<point x="523" y="650" type="line"/>
			<point x="523" y="274" type="line" smooth="yes"/>
			<point x="523" y="133"/>
			<point x="477" y="80"/>
			<point x="345" y="80" type="curve" smooth="yes"/>
			<point x="213" y="80"/>
			<point x="167" y="133"/>
			<point x="167" y="274" type="curve" smooth="yes"/>
			<point x="167" y="650" type="line"/>
			<point x="65" y="650" type="line"/>
		</contour>
	</outline>
</glyph>
<glyph name="W" format="2">
	<advance width="974"/>
	<unicode hex="0057"/>
	<guideline x="-278" y="90" angle="0"/>
	<outline>
		<contour>
			<point x="10" y="650" type="line"/>
			<point x="190" y="0" type="line"/>
			<point x="347" y="0" type="line"/>
			<point x="487" y="573" type="line"/>
			<point x="627" y="0" type="line"/>
			<point x="779" y="0" type="line"/>
			<point x="964" y="650" type="line"/>
			<point x="853" y="650" type="line"/>
			<point x="704" y="77" type="line"/>
			<point x="570" y="650" type="line"/>
			<point x="404" y="650" type="line"/>
			<point x="270" y="77" type="line"/>
			<point x="121" y="650" type="line"/>
		</contour>
	</outline>
</glyph>
<glyph name="X" format="2">
	<advance width="634"/>
	<unicode hex="0058"/>
	<guideline x="473" y="344" angle="0"/>
	<outline>
		<contour>
			<point x="604" y="650" type="line"/>
			<point x="479" y="650" type="line"/>
			<point x="310" y="400" type="line"/>
			<point x="372" y="328" type="line"/>
		</contour>
		<contour>
			<point x="30" y="650" type="line"/>
			<point x="505" y="0" type="line"/>
			<point x="629" y="0" type="line"/>
			<point x="154" y="650" type="line"/>
		</contour>
		<contour>
			<point x="10" y="0" type="line"/>
			<point x="133" y="0" type="line"/>
			<point x="326" y="283" type="line"/>
			<point x="263" y="356" type="line"/>
		</contour>
	</outline>
</glyph>
<glyph name="Z" format="2">
	<advance width="580"/>
	<unicode hex="005A"/>
	<outline>
		<contour>
			<point x="540" y="650" type="line"/>
			<point x="35" y="650" type="line"/>
			<point x="35" y="555" type="line"/>
			<point x="407" y="555" type="line"/>
			<point x="30" y="95" type="line"/>
			<point x="30" y="0" type="line"/>
			<point x="555" y="0" type="line"/>
			<point x="555" y="95" type="line"/>
			<point x="158" y="95" type="line"/>
			<point x="337" y="306" type="line"/>
			<point x="540" y="555" type="line"/>
		</contour>
	</outline>
</glyph>
<glyph name="a" format="2">
	<advance width="593"/>
	<unicode hex="0061"/>
	<anchor x="298" y="500" name="top"/>
	<outline>
		<contour>
			<point x="275" y="-15" type="curve" smooth="yes"/>
			<point x="408" y="-15"/>
			<point x="462" y="45"/>
			<point x="462" y="173" type="curve"/>
			<point x="448" y="143" type="line"/>
			<point x="448" y="0" type="line"/>
			<point x="528" y="0" type="line"/>
			<point x="528" y="287" type="line" smooth="yes"/>
			<point x="528" y="453"/>
			<point x="466" y="515"/>
			<point x="298" y="515" type="curve" smooth="yes"/>
			<point x="164" y="515"/>
			<point x="96" y="471"/>
			<point x="78" y="368" type="curve"/>
			<point x="178" y="368" type="line"/>
			<point x="191" y="411"/>
			<point x="231" y="427"/>
			<point x="296" y="427" type="curve" smooth="yes"/>
			<point x="395" y="427"/>
			<point x="433" y="393"/>
			<point x="433" y="303" type="curve" smooth="yes"/>
			<point x="433" y="210" type="line" smooth="yes"/>
			<point x="433" y="109"/>
			<point x="394" y="73"/>
			<point x="293" y="73" type="curve" smooth="yes"/>
			<point x="183" y="73"/>
			<point x="155" y="93"/>
			<point x="155" y="143" type="curve" smooth="yes"/>
			<point x="155" y="193"/>
			<point x="183" y="210"/>
			<point x="294" y="210" type="curve" smooth="yes"/>
			<point x="457" y="210" type="line"/>
			<point x="457" y="292" type="line"/>
			<point x="275" y="292" type="line" smooth="yes"/>
			<point x="128" y="292"/>
			<point x="60" y="264"/>
			<point x="60" y="143" type="curve" smooth="yes"/>
			<point x="60" y="22"/>
			<point x="128" y="-15"/>
		</contour>
	</outline>
</glyph>
<glyph name="d" format="2">
	<advance width="602"/>
	<unicode hex="0064"/>
	<outline>
		<contour>
			<point x="452" y="0" type="line"/>
			<point x="532" y="0" type="line"/>
			<point x="532" y="700" type="line"/>
			<point x="437" y="700" type="line"/>
			<point x="437" y="496" type="line" smooth="yes"/>
			<point x="437" y="461"/>
			<point x="443" y="428"/>
			<point x="457" y="393" type="curve"/>
			<point x="452" y="103" type="line"/>
		</contour>
		<contour>
			<point x="285" y="-15" type="curve" smooth="yes"/>
			<point x="422" y="-15"/>
			<point x="473" y="57"/>
			<point x="473" y="250" type="curve" smooth="yes"/>
			<point x="473" y="443"/>
			<point x="422" y="515"/>
			<point x="285" y="515" type="curve" smooth="yes"/>
			<point x="114" y="515"/>
			<point x="50" y="443"/>
			<point x="50" y="250" type="curve" smooth="yes"/>
			<point x="50" y="57"/>
			<point x="114" y="-15"/>
		</contour>
		<contour>
			<point x="290" y="73" type="curve" smooth="yes"/>
			<point x="179" y="73"/>
			<point x="143" y="116"/>
			<point x="143" y="250" type="curve" smooth="yes"/>
			<point x="143" y="384"/>
			<point x="179" y="427"/>
			<point x="290" y="427" type="curve" smooth="yes"/>
			<point x="401" y="427"/>
			<point x="437" y="384"/>
			<point x="437" y="250" type="curve" smooth="yes"/>
			<point x="437" y="116"/>
			<point x="401" y="73"/>
		</contour>
	</outline>
</glyph>
<glyph name="l" format="2">
	<advance width="308"/>
	<unicode hex="006C"/>
	<outline>
		<contour>
			<point x="216" y="-5" type="curve" smooth="yes"/>
			<point x="238" y="-5"/>
			<point x="261" y="-3"/>
			<point x="283" y="0" type="curve"/>
			<point x="283" y="92" type="line"/>
			<point x="264" y="91"/>
			<point x="241" y="90"/>
			<point x="216" y="90" type="curve" smooth="yes"/>
			<point x="182" y="90"/>
			<point x="166" y="106"/>
			<point x="166" y="138" type="curve" smooth="yes"/>
			<point x="166" y="700" type="line"/>
			<point x="70" y="700" type="line"/>
			<point x="70" y="140" type="line" smooth="yes"/>
			<point x="70" y="38"/>
			<point x="113" y="-5"/>
		</contour>
	</outline>
</glyph>
<glyph name="n" format="2">
	<advance width="589"/>
	<unicode hex="006E"/>
	<guideline x="157" y="452" angle="0"/>
	<anchor x="312" y="500" name="top"/>
	<outline>
		<contour>
			<point x="70" y="500" type="line"/>
			<point x="70" y="0" type="line"/>
			<point x="165" y="0" type="line"/>
			<point x="165" y="362" type="line"/>
			<point x="150" y="362" type="line"/>
			<point x="150" y="500" type="line"/>
		</contour>
		<contour>
			<point x="129" y="292" type="curve"/>
			<point x="165" y="292" type="line"/>
			<point x="165" y="392"/>
			<point x="202" y="427"/>
			<point x="297" y="427" type="curve" smooth="yes"/>
			<point x="392" y="427"/>
			<point x="429" y="386"/>
			<point x="429" y="292" type="curve" smooth="yes"/>
			<point x="429" y="0" type="line"/>
			<point x="524" y="0" type="line"/>
			<point x="524" y="292" type="line" smooth="yes"/>
			<point x="524" y="462"/>
			<point x="456" y="515"/>
			<point x="315" y="515" type="curve" smooth="yes"/>
			<point x="183" y="515"/>
			<point x="129" y="444"/>
		</contour>
	</outline>
</glyph>
<glyph name="t" format="2">
	<advance width="393"/>
	<unicode hex="0074"/>
	<outline>
		<contour>
			<point x="15" y="500" type="line"/>
			<point x="15" y="416" type="line"/>
			<point x="368" y="416" type="line"/>
			<point x="368" y="500" type="line"/>
		</contour>
		<contour>
			<point x="282" y="-5" type="curve" smooth="yes"/>
			<point x="316" y="-5"/>
			<point x="348" y="-1"/>
			<point x="373" y="2" type="curve"/>
			<point x="373" y="85" type="line"/>
			<point x="350" y="82"/>
			<point x="318" y="80"/>
			<point x="292" y="80" type="curve" smooth="yes"/>
			<point x="229" y="80"/>
			<point x="211" y="107"/>
			<point x="211" y="178" type="curve" smooth="yes"/>
			<point x="211" y="600" type="line"/>
			<point x="115" y="600" type="line"/>
			<point x="115" y="180" type="line" smooth="yes"/>
			<point x="115" y="37"/>
			<point x="159" y="-5"/>
		</contour>
	</outline>
</glyph>
<glyph name="u" format="2">
	<advance width="583"/>
	<unicode hex="0075"/>
	<anchor x="289" y="500" name="top"/>
	<anchor x="271" y="0" name="bottom"/>
	<outline>
		<contour>
			<point x="513" y="0" type="line"/>
			<point x="513" y="500" type="line"/>
			<point x="418" y="500" type="line"/>
			<point x="418" y="138" type="line"/>
			<point x="433" y="138" type="line"/>
			<point x="433" y="0" type="line"/>
		</contour>
		<contour>
			<point x="454" y="208" type="curve"/>
			<point x="418" y="208" type="line"/>
			<point x="418" y="108"/>
			<point x="382" y="73"/>
			<point x="288" y="73" type="curve" smooth="yes"/>
			<point x="196" y="73"/>
			<point x="160" y="114"/>
			<point x="160" y="208" type="curve" smooth="yes"/>
			<point x="160" y="500" type="line"/>
			<point x="65" y="500" type="line"/>
			<point x="65" y="208" type="line" smooth="yes"/>
			<point x="65" y="38"/>
			<point x="132" y="-15"/>
			<point x="270" y="-15" type="curve" smooth="yes"/>
			<point x="401" y="-15"/>
			<point x="454" y="56"/>
		</contour>
	</outline>
</glyph>
<glyph name="v" format="2">
	<advance width="530"/>
	<unicode hex="0076"/>
	<outline>
		<contour>
			<point x="10" y="500" type="line"/>
			<point x="199" y="0" type="line"/>
			<point x="331" y="0" type="line"/>
			<point x="520" y="500" type="line"/>
			<point x="412" y="500" type="line"/>
			<point x="265" y="70" type="line"/>
			<point x="118" y="500" type="line"/>
		</contour>
	</outline>
</glyph>
<glyph name="y" format="2">
	<advance width="530"/>
	<unicode hex="0079"/>
	<outline>
		<contour>
			<point x="135" y="-200" type="line"/>
			<point x="245" y="-200" type="line"/>
			<point x="520" y="500" type="line"/>
			<point x="412" y="500" type="line"/>
			<point x="246" y="51" type="line"/>
		</contour>
		<contour>
			<point x="225" y="-24" type="line"/>
			<point x="275" y="84" type="line"/>
			<point x="118" y="500" type="line"/>
			<point x="10" y="500" type="line"/>
		</contour>
	</outline>
</glyph>
<glyph name="z" format="2">
	<advance width="516"/>
	<unicode hex="007A"/>
	<outline>
		<contour>
			<point x="45" y="90" type="line"/>
			<point x="45" y="0" type="line"/>
			<point x="481" y="0" type="line"/>
			<point x="481" y="90" type="line"/>
			<point x="162" y="90" type="line"/>
			<point x="210" y="135"/>
			<point x="261" y="182"/>
			<point x="307" y="231" type="curve" smooth="yes"/>
			<point x="476" y="410" type="line"/>
			<point x="476" y="500" type="line"/>
			<point x="50" y="500" type="line"/>
			<point x="50" y="410" type="line"/>
			<point x="361" y="410" type="line"/>
			<point x="314" y="367"/>
			<point x="263" y="319"/>
			<point x="218" y="271" type="curve" smooth="yes"/>
		</contour>
	</outline>
</glyph>
<glyph name="dotaccentcomb" format="2">
	<advance width="0"/>
	<unicode hex="0307"/>
	<anchor x="0" y="500" name="_top"/>
	<outline>
		<contour>
			<point x="0" y="586" type="curve" smooth="yes"/>
			<point x="49" y="586"/>
			<point x="63" y="603"/>
			<point x="63" y="644" type="curve" smooth="yes"/>
			<point x="63" y="683"/>
			<point x="49" y="700"/>
			<point x="0" y="700" type="curve" smooth="yes"/>
			<point x="-49" y="700"/>
			<point x="-63" y="683"/>
			<point x="-63" y="644" type="curve" smooth="yes"/>
			<point x="-63" y="603"/>
			<point x="-49" y="586"/>
		</contour>
	</outline>
</glyph>
<glyph name="quoteleft" format="2">
	<advance width="222"/>
	<unicode hex="2018"/>
	<outline>
		<contour>
			<point x="113" y="440" type="curve" smooth="yes"/>
			<point x="62" y="440"/>
			<point x="40" y="465"/>
			<point x="40" y="560" type="curve" smooth="yes"/>
			<point x="40" y="685"/>
			<point x="92" y="710"/>
			<point x="177" y="710" type="curve"/>
			<point x="177" y="640" type="line"/>
			<point x="139" y="640"/>
			<point x="123" y="628"/>
			<point x="123" y="577" type="curve" smooth="yes"/>
			<point x="123" y="545" type="line"/>
			<point x="111" y="569" type="line"/>
			<point x="167" y="569"/>
			<point x="182" y="551"/>
			<point x="182" y="505" type="curve" smooth="yes"/>
			<point x="182" y="459"/>
			<point x="167" y="440"/>
		</contour>
	</outline>
</glyph>
<glyph name="wheelchairSymbol" format="2">
	<advance width="900"/>
	<unicode hex="267F"/>
	<guideline x="-46" y="0" angle="0"/>
	<guideline x="-71" y="-175" angle="0"/>
	<guideline x="379" y="0" angle="0"/>
	<guideline x="-71" y="250" angle="0"/>
	<guideline x="804" y="0" angle="0"/>
	<guideline x="-71" y="675" angle="0"/>
	<outline>
		<contour>
			<point x="735" y="-71" type="line"/>
			<point x="633" y="128" type="line" smooth="yes"/>
			<point x="614" y="164"/>
			<point x="596" y="180"/>
			<point x="571" y="180" type="curve" smooth="yes"/>
			<point x="554" y="180"/>
			<point x="535" y="172"/>
			<point x="496" y="154" type="curve"/>
			<point x="473" y="161" type="line"/>
			<point x="473" y="238" type="line" smooth="yes"/>
			<point x="473" y="310"/>
			<point x="462" y="389"/>
			<point x="335" y="389" type="curve" smooth="yes"/>
			<point x="218" y="389"/>
			<point x="194" y="320"/>
			<point x="194" y="265" type="curve" smooth="yes"/>
			<point x="194" y="229"/>
			<point x="212" y="196"/>
			<point x="290" y="55" type="curve"/>
			<point x="345" y="55" type="line"/>
			<point x="264" y="196"/>
			<point x="245" y="230"/>
			<point x="245" y="264" type="curve" smooth="yes"/>
			<point x="245" y="313"/>
			<point x="275" y="341"/>
			<point x="333" y="341" type="curve" smooth="yes"/>
			<point x="399" y="341"/>
			<point x="422" y="313"/>
			<point x="422" y="233" type="curve" smooth="yes"/>
			<point x="422" y="177" type="line"/>
			<point x="401" y="181"/>
			<point x="371" y="181"/>
			<point x="346" y="181" type="curve"/>
			<point x="346" y="134" type="line"/>
			<point x="461" y="134"/>
			<point x="500" y="99"/>
			<point x="500" y="8" type="curve" smooth="yes"/>
			<point x="500" y="-82"/>
			<point x="461" y="-129"/>
			<point x="356" y="-129" type="curve" smooth="yes"/>
			<point x="251" y="-129"/>
			<point x="211" y="-83"/>
			<point x="211" y="8" type="curve" smooth="yes"/>
			<point x="211" y="48"/>
			<point x="212" y="70"/>
			<point x="231" y="93" type="curve"/>
			<point x="207" y="126" type="line"/>
			<point x="184" y="114"/>
			<point x="165" y="77"/>
			<point x="165" y="8" type="curve" smooth="yes"/>
			<point x="165" y="-121"/>
			<point x="214" y="-175"/>
			<point x="356" y="-175" type="curve" smooth="yes"/>
			<point x="498" y="-175"/>
			<point x="546" y="-121"/>
			<point x="546" y="8" type="curve" smooth="yes"/>
			<point x="546" y="52"/>
			<point x="539" y="85"/>
			<point x="528" y="111" type="curve"/>
			<point x="550" y="122"/>
			<point x="558" y="125"/>
			<point x="563" y="125" type="curve" smooth="yes"/>
			<point x="572" y="125"/>
			<point x="580" y="114"/>
			<point x="584" y="106" type="curve" smooth="yes"/>
			<point x="688" y="-93" type="line"/>
		</contour>
		<contour>
			<point x="383" y="8" type="curve" smooth="yes"/>
			<point x="383" y="28"/>
			<point x="377" y="32"/>
			<point x="356" y="32" type="curve" smooth="yes"/>
			<point x="333" y="32"/>
			<point x="328" y="29"/>
			<point x="328" y="8" type="curve" smooth="yes"/>
			<point x="328" y="-12"/>
			<point x="333" y="-16"/>
			<point x="356" y="-16" type="curve" smooth="yes"/>
			<point x="378" y="-16"/>
			<point x="383" y="-12"/>
		</contour>
		<contour>
			<point x="274" y="557" type="curve" smooth="yes"/>
			<point x="274" y="616"/>
			<point x="291" y="635"/>
			<point x="338" y="635" type="curve" smooth="yes"/>
			<point x="388" y="635"/>
			<point x="403" y="616"/>
			<point x="403" y="557" type="curve" smooth="yes"/>
			<point x="403" y="498"/>
			<point x="388" y="479"/>
			<point x="338" y="479" type="curve" smooth="yes"/>
			<point x="291" y="479"/>
			<point x="274" y="498"/>
		</contour>
		<contour>
			<point x="338" y="438" type="curve" smooth="yes"/>
			<point x="419" y="438"/>
			<point x="447" y="470"/>
			<point x="447" y="557" type="curve" smooth="yes"/>
			<point x="447" y="645"/>
			<point x="419" y="675"/>
			<point x="338" y="675" type="curve" smooth="yes"/>
			<point x="259" y="675"/>
			<point x="231" y="645"/>
			<point x="231" y="557" type="curve" smooth="yes"/>
			<point x="231" y="470"/>
			<point x="259" y="438"/>
		</contour>
	</outline>
</glyph>
<glyph name="heavyDollarSign" format="2">
	<advance width="900"/>
	<unicode hex="1F4B2"/>
	<guideline x="27" y="0" angle="0"/>
	<guideline x="2" y="-175" angle="0"/>
	<guideline x="452" y="0" angle="0"/>
	<guideline x="2" y="250" angle="0"/>
	<guideline x="877" y="0" angle="0"/>
	<guideline x="2" y="675" angle="0"/>
	<outline>
		<contour>
			<point x="347" y="675" type="line"/>
			<point x="347" y="575" type="line"/>
			<point x="171" y="559"/>
			<point x="105" y="491"/>
			<point x="105" y="379" type="curve" smooth="yes"/>
			<point x="105" y="255"/>
			<point x="180" y="214"/>
			<point x="434" y="174" type="curve" smooth="yes"/>
			<point x="549" y="156"/>
			<point x="581" y="150"/>
			<point x="581" y="124" type="curve" smooth="yes"/>
			<point x="581" y="96"/>
			<point x="540" y="83"/>
			<point x="455" y="83" type="curve" smooth="yes"/>
			<point x="351" y="83"/>
			<point x="319" y="102"/>
			<point x="319" y="163" type="curve"/>
			<point x="101" y="163" type="line"/>
			<point x="101" y="10"/>
			<point x="166" y="-61"/>
			<point x="350" y="-77" type="curve"/>
			<point x="350" y="-175" type="line"/>
			<point x="554" y="-175" type="line"/>
			<point x="554" y="-77" type="line"/>
			<point x="741" y="-61"/>
			<point x="799" y="4"/>
			<point x="799" y="124" type="curve" smooth="yes"/>
			<point x="799" y="289"/>
			<point x="680" y="299"/>
			<point x="450" y="339" type="curve" smooth="yes"/>
			<point x="351" y="356"/>
			<point x="326" y="365"/>
			<point x="326" y="382" type="curve" smooth="yes"/>
			<point x="326" y="407"/>
			<point x="353" y="415"/>
			<point x="437" y="415" type="curve" smooth="yes"/>
			<point x="526" y="415"/>
			<point x="563" y="395"/>
			<point x="563" y="366" type="curve"/>
			<point x="779" y="366" type="line"/>
			<point x="779" y="494"/>
			<point x="722" y="559"/>
			<point x="554" y="575" type="curve"/>
			<point x="554" y="675" type="line"/>
		</contour>
		<contour>
			<point x="399" y="622" type="line"/>
			<point x="502" y="622" type="line"/>
			<point x="502" y="528" type="line"/>
			<point x="662" y="516"/>
			<point x="711" y="496"/>
			<point x="724" y="416" type="curve"/>
			<point x="591" y="416" type="line"/>
			<point x="572" y="444"/>
			<point x="521" y="463"/>
			<point x="435" y="463" type="curve" smooth="yes"/>
			<point x="328" y="463"/>
			<point x="273" y="448"/>
			<point x="273" y="382" type="curve" smooth="yes"/>
			<point x="273" y="322"/>
			<point x="321" y="312"/>
			<point x="439" y="292" type="curve" smooth="yes"/>
			<point x="670" y="252"/>
			<point x="747" y="248"/>
			<point x="747" y="124" type="curve" smooth="yes"/>
			<point x="747" y="14"/>
			<point x="707" y="-18"/>
			<point x="502" y="-29" type="curve"/>
			<point x="502" y="-124" type="line"/>
			<point x="399" y="-124" type="line"/>
			<point x="399" y="-29" type="line"/>
			<point x="219" y="-18"/>
			<point x="165" y="10"/>
			<point x="152" y="112" type="curve"/>
			<point x="275" y="112" type="line"/>
			<point x="295" y="57"/>
			<point x="351" y="37"/>
			<point x="453" y="37" type="curve" smooth="yes"/>
			<point x="563" y="37"/>
			<point x="629" y="57"/>
			<point x="629" y="124" type="curve" smooth="yes"/>
			<point x="629" y="191"/>
			<point x="573" y="204"/>
			<point x="437" y="222" type="curve" smooth="yes"/>
			<point x="195" y="254"/>
			<point x="154" y="281"/>
			<point x="154" y="379" type="curve" smooth="yes"/>
			<point x="154" y="479"/>
			<point x="198" y="516"/>
			<point x="399" y="528" type="curve"/>
		</contour>
	</outline>
</glyph>
<glyph name="noEntrySign" format="2">
	<advance width="900"/>
	<unicode hex="1F6AB"/>
	<guideline x="25" y="0" angle="0"/>
	<guideline y="-175"/>
	<guideline x="450" y="0" angle="0"/>
	<guideline y="250"/>
	<guideline x="875" y="0" angle="0"/>
	<guideline y="675"/>
	<outline>
		<contour>
			<point x="728" y="37" type="curve"/>
			<point x="192" y="515" type="line"/>
			<point x="233" y="568"/>
			<point x="323" y="617"/>
			<point x="450" y="617" type="curve"/>
			<point x="690" y="617"/>
			<point x="752" y="495"/>
			<point x="752" y="250" type="curve"/>
			<point x="752" y="156"/>
			<point x="743" y="86"/>
		</contour>
		<contour>
			<point x="173" y="462" type="curve"/>
			<point x="708" y="-15" type="line"/>
			<point x="667" y="-68"/>
			<point x="578" y="-117"/>
			<point x="450" y="-117" type="curve"/>
			<point x="210" y="-117"/>
			<point x="148" y="5"/>
			<point x="148" y="250" type="curve"/>
			<point x="148" y="341"/>
			<point x="157" y="413"/>
		</contour>
		<contour>
			<point x="811" y="519"/>
			<point x="746" y="675"/>
			<point x="450" y="675" type="curve"/>
			<point x="174" y="675"/>
			<point x="89" y="543"/>
			<point x="89" y="250" type="curve"/>
			<point x="89" y="20"/>
			<point x="137" y="-175"/>
			<point x="450" y="-175" type="curve"/>
			<point x="735" y="-175"/>
			<point x="811" y="-32"/>
			<point x="811" y="250" type="curve"/>
		</contour>
	</outline>
</glyph>
<glyph name="noSmokingSymbol" format="2">
	<advance width="900"/>
	<unicode hex="1F6AD"/>
	<guideline x="25" y="0" angle="0"/>
	<guideline y="-175"/>
	<guideline x="450" y="0" angle="0"/>
	<guideline y="250"/>
	<guideline x="875" y="0" angle="0"/>
	<guideline y="675"/>
	<outline>
		<contour>
			<point x="459" y="326" type="line"/>
			<point x="188" y="592" type="line"/>
			<point x="153" y="554" type="line"/>
			<point x="382" y="326" type="line"/>
			<point x="390" y="356" type="line"/>
			<point x="25" y="356" type="line"/>
			<point x="25" y="147" type="line"/>
			<point x="609" y="147" type="line"/>
			<point x="538" y="181" type="line"/>
			<point x="754" y="-32" type="line"/>
			<point x="789" y="5" type="line"/>
			<point x="613" y="179" type="line"/>
			<point x="603" y="147" type="line"/>
			<point x="800" y="147" type="line"/>
			<point x="800" y="356" type="line"/>
			<point x="386" y="356" type="line"/>
		</contour>
		<contour>
			<point x="594" y="196" type="line"/>
			<point x="485" y="307" type="line"/>
			<point x="751" y="307" type="line"/>
			<point x="751" y="196" type="line"/>
		</contour>
		<contour>
			<point x="268" y="196" type="line"/>
			<point x="268" y="307" type="line"/>
			<point x="401" y="307" type="line"/>
			<point x="510" y="196" type="line"/>
		</contour>
		<contour>
			<point x="764" y="517" type="line"/>
			<point x="764" y="393" type="line"/>
			<point x="800" y="393" type="line"/>
			<point x="800" y="517" type="line"/>
		</contour>
		<contour>
			<point x="839" y="561" type="line"/>
			<point x="839" y="293" type="line"/>
			<point x="875" y="293" type="line"/>
			<point x="875" y="561" type="line"/>
		</contour>
	</outline>
</glyph>
<glyph name="putLitterInItsPlaceSymbol" format="2">
	<advance width="900"/>
	<unicode hex="1F6AE"/>
	<guideline x="-22" y="0" angle="0"/>
	<guideline x="-47" y="-175" angle="0"/>
	<guideline x="403" y="0" angle="0"/>
	<guideline x="-47" y="250" angle="0"/>
	<guideline x="828" y="0" angle="0"/>
	<guideline x="-47" y="675" angle="0"/>
	<outline>
		<contour>
			<point x="128" y="15" type="line"/>
			<point x="181" y="15" type="line"/>
			<point x="181" y="298" type="line" smooth="yes"/>
			<point x="181" y="346"/>
			<point x="200" y="364"/>
			<point x="253" y="364" type="curve" smooth="yes"/>
			<point x="301" y="364"/>
			<point x="319" y="350"/>
			<point x="319" y="311" type="curve" smooth="yes"/>
			<point x="319" y="268"/>
			<point x="332" y="230"/>
			<point x="397" y="230" type="curve" smooth="yes"/>
			<point x="493" y="230" type="line"/>
			<point x="493" y="283" type="line"/>
			<point x="403" y="283" type="line" smooth="yes"/>
			<point x="380" y="283"/>
			<point x="372" y="292"/>
			<point x="372" y="315" type="curve" smooth="yes"/>
			<point x="372" y="369"/>
			<point x="353" y="417"/>
			<point x="253" y="417" type="curve" smooth="yes"/>
			<point x="149" y="417"/>
			<point x="128" y="363"/>
			<point x="128" y="302" type="curve" smooth="yes"/>
		</contour>
		<contour>
			<point x="477" y="-175" type="line"/>
			<point x="739" y="-175" type="line"/>
			<point x="771" y="193" type="line"/>
			<point x="719" y="193" type="line"/>
			<point x="694" y="-129" type="line"/>
			<point x="522" y="-129" type="line"/>
			<point x="497" y="193" type="line"/>
			<point x="445" y="193" type="line"/>
		</contour>
		<contour>
			<point x="593" y="88" type="curve"/>
			<point x="626" y="97"/>
			<point x="632" y="131"/>
			<point x="654" y="146" type="curve"/>
			<point x="654" y="182"/>
			<point x="629" y="204"/>
			<point x="593" y="204" type="curve"/>
			<point x="547" y="204"/>
			<point x="566" y="167"/>
			<point x="535" y="146" type="curve"/>
			<point x="593" y="146"/>
			<point x="593" y="116"/>
		</contour>
		<contour>
			<point x="603" y="31" type="line"/>
			<point x="549" y="-79" type="line"/>
			<point x="604" y="-110" type="line"/>
			<point x="672" y="-8" type="line"/>
		</contour>
		<contour>
			<point x="188" y="562" type="curve" smooth="yes"/>
			<point x="188" y="616"/>
			<point x="205" y="635"/>
			<point x="252" y="635" type="curve" smooth="yes"/>
			<point x="302" y="635"/>
			<point x="317" y="616"/>
			<point x="317" y="562" type="curve" smooth="yes"/>
			<point x="317" y="508"/>
			<point x="302" y="489"/>
			<point x="252" y="489" type="curve" smooth="yes"/>
			<point x="205" y="489"/>
			<point x="188" y="508"/>
		</contour>
		<contour>
			<point x="252" y="448" type="curve" smooth="yes"/>
			<point x="333" y="448"/>
			<point x="361" y="466"/>
			<point x="361" y="562" type="curve" smooth="yes"/>
			<point x="361" y="645"/>
			<point x="333" y="675"/>
			<point x="252" y="675" type="curve" smooth="yes"/>
			<point x="173" y="675"/>
			<point x="145" y="645"/>
			<point x="145" y="562" type="curve" smooth="yes"/>
			<point x="145" y="480"/>
			<point x="173" y="448"/>
		</contour>
	</outline>
</glyph>
<glyph name="mensSymbol" format="2">
	<advance width="900"/>
	<unicode hex="1F6B9"/>
	<guideline x="239" y="0" angle="0"/>
	<guideline x="214" y="-175" angle="0"/>
	<guideline x="664" y="0" angle="0"/>
	<guideline x="214" y="250" angle="0"/>
	<guideline x="1089" y="0" angle="0"/>
	<guideline x="214" y="675" angle="0"/>
	<outline>
		<contour>
			<point x="450" y="277" type="curve"/>
			<point x="317" y="277"/>
			<point x="264" y="210"/>
			<point x="264" y="84" type="curve"/>
			<point x="264" y="-175" type="line"/>
			<point x="320" y="-175" type="line"/>
			<point x="320" y="78" type="line"/>
			<point x="320" y="164"/>
			<point x="354" y="222"/>
			<point x="450" y="222" type="curve"/>
			<point x="546" y="222"/>
			<point x="580" y="164"/>
			<point x="580" y="78" type="curve"/>
			<point x="580" y="-175" type="line"/>
			<point x="636" y="-175" type="line"/>
			<point x="636" y="84" type="line"/>
			<point x="636" y="214"/>
			<point x="578" y="277"/>
		</contour>
		<contour>
			<point x="450" y="622" type="curve" smooth="yes"/>
			<point x="372" y="622"/>
			<point x="343" y="581"/>
			<point x="343" y="495" type="curve"/>
			<point x="343" y="410"/>
			<point x="370" y="370"/>
			<point x="450" y="370" type="curve" smooth="yes"/>
			<point x="530" y="370"/>
			<point x="557" y="410"/>
			<point x="557" y="495" type="curve"/>
			<point x="557" y="581"/>
			<point x="528" y="622"/>
		</contour>
		<contour>
			<point x="450" y="317" type="curve" smooth="yes"/>
			<point x="325" y="317"/>
			<point x="288" y="372"/>
			<point x="288" y="495" type="curve"/>
			<point x="288" y="619"/>
			<point x="326" y="675"/>
			<point x="450" y="675" type="curve" smooth="yes"/>
			<point x="574" y="675"/>
			<point x="612" y="619"/>
			<point x="612" y="495" type="curve"/>
			<point x="612" y="372"/>
			<point x="575" y="317"/>
		</contour>
	</outline>
</glyph>
<glyph name="womensSymbol" format="2">
	<advance width="900"/>
	<unicode hex="1F6BA"/>
	<guideline x="239" y="0" angle="0"/>
	<guideline x="214" y="-175" angle="0"/>
	<guideline x="664" y="0" angle="0"/>
	<guideline x="214" y="250" angle="0"/>
	<guideline x="1089" y="0" angle="0"/>
	<guideline x="214" y="675" angle="0"/>
	<outline>
		<contour>
			<point x="450" y="370" type="curve" smooth="yes"/>
			<point x="365" y="370"/>
			<point x="344" y="409"/>
			<point x="344" y="495" type="curve"/>
			<point x="344" y="582"/>
			<point x="370" y="622"/>
			<point x="450" y="622" type="curve" smooth="yes"/>
			<point x="530" y="622"/>
			<point x="556" y="582"/>
			<point x="556" y="495" type="curve"/>
			<point x="556" y="409"/>
			<point x="535" y="370"/>
		</contour>
		<contour>
			<point x="450" y="277" type="curve"/>
			<point x="317" y="277"/>
			<point x="264" y="210"/>
			<point x="264" y="84" type="curve"/>
			<point x="264" y="-175" type="line"/>
			<point x="320" y="-175" type="line"/>
			<point x="320" y="78" type="line"/>
			<point x="320" y="164"/>
			<point x="354" y="222"/>
			<point x="450" y="222" type="curve"/>
			<point x="546" y="222"/>
			<point x="580" y="164"/>
			<point x="580" y="78" type="curve"/>
			<point x="580" y="-175" type="line"/>
			<point x="636" y="-175" type="line"/>
			<point x="636" y="84" type="line"/>
			<point x="636" y="214"/>
			<point x="578" y="277"/>
		</contour>
		<contour>
			<point x="450" y="675" type="curve" smooth="yes"/>
			<point x="347" y="675"/>
			<point x="303" y="638"/>
			<point x="293" y="536" type="curve"/>
			<point x="292" y="528"/>
			<point x="292" y="524"/>
			<point x="291" y="519" type="curve"/>
			<point x="288" y="506"/>
			<point x="270" y="500"/>
			<point x="244" y="500" type="curve"/>
			<point x="198" y="500" type="line"/>
			<point x="198" y="450" type="line"/>
			<point x="244" y="450" type="line"/>
			<point x="261" y="450"/>
			<point x="282" y="452"/>
			<point x="294" y="455" type="curve"/>
			<point x="294" y="420" type="line"/>
			<point x="294" y="385"/>
			<point x="276" y="369"/>
			<point x="241" y="369" type="curve"/>
			<point x="195" y="369" type="line"/>
			<point x="195" y="319" type="line"/>
			<point x="241" y="319" type="line"/>
			<point x="288" y="319"/>
			<point x="320" y="334"/>
			<point x="335" y="357" type="curve"/>
			<point x="351" y="330"/>
			<point x="395" y="317"/>
			<point x="450" y="317" type="curve" smooth="yes"/>
			<point x="505" y="317"/>
			<point x="549" y="330"/>
			<point x="565" y="357" type="curve"/>
			<point x="580" y="334"/>
			<point x="612" y="319"/>
			<point x="659" y="319" type="curve"/>
			<point x="705" y="319" type="line"/>
			<point x="705" y="369" type="line"/>
			<point x="659" y="369" type="line"/>
			<point x="624" y="369"/>
			<point x="606" y="385"/>
			<point x="606" y="420" type="curve"/>
			<point x="606" y="455" type="line"/>
			<point x="618" y="452"/>
			<point x="639" y="450"/>
			<point x="656" y="450" type="curve"/>
			<point x="702" y="450" type="line"/>
			<point x="702" y="500" type="line"/>
			<point x="656" y="500" type="line"/>
			<point x="630" y="500"/>
			<point x="612" y="506"/>
			<point x="609" y="519" type="curve"/>
			<point x="608" y="524"/>
			<point x="608" y="528"/>
			<point x="607" y="536" type="curve"/>
			<point x="597" y="638"/>
			<point x="553" y="675"/>
		</contour>
	</outline>
</glyph>
<glyph name=".notdef" format="2">
	<advance width="560"/>
	<outline>
		<contour>
			<point x="70" y="-200" type="line"/>
			<point x="490" y="-200" type="line"/>
			<point x="490" y="750" type="line"/>
			<point x="70" y="750" type="line"/>
		</contour>
		<contour>
			<point x="165" y="-110" type="line"/>
			<point x="165" y="660" type="line"/>
			<point x="395" y="660" type="line"/>
			<point x="395" y="-110" type="line"/>
		</contour>
	</outline>
</glyph>
<glyph name="dieresiscomb.case" format="2">
	<advance width="0"/>
	<anchor x="0" y="650" name="_top"/>
	<outline>
		<contour>
			<point x="-100" y="706" type="curve" smooth="yes"/>
			<point x="-52" y="706"/>
			<point x="-40" y="722"/>
			<point x="-40" y="764" type="curve" smooth="yes"/>
			<point x="-40" y="806"/>
			<point x="-52" y="822"/>
			<point x="-100" y="822" type="curve" smooth="yes"/>
			<point x="-148" y="822"/>
			<point x="-160" y="806"/>
			<point x="-160" y="764" type="curve" smooth="yes"/>
			<point x="-160" y="722"/>
			<point x="-148" y="706"/>
		</contour>
		<contour>
			<point x="100" y="706" type="curve" smooth="yes"/>
			<point x="148" y="706"/>
			<point x="160" y="722"/>
			<point x="160" y="764" type="curve" smooth="yes"/>
			<point x="160" y="806"/>
			<point x="148" y="822"/>
			<point x="100" y="822" type="curve" smooth="yes"/>
			<point x="52" y="822"/>
			<point x="40" y="806"/>
			<point x="40" y="764" type="curve" smooth="yes"/>
			<point x="40" y="722"/>
			<point x="52" y="706"/>
		</contour>
	</outline>
</glyph>
<glyph name="tildecomb.case" format="2">
	<advance width="0"/>
	<anchor x="5" y="650" name="_top"/>
	<outline>
		<contour>
			<point x="-186" y="737" type="curve" smooth="yes"/>
			<point x="-186" y="726" type="line"/>
			<point x="-111" y="726" type="line"/>
			<point x="-111" y="737" type="line" smooth="yes"/>
			<point x="-111" y="759"/>
			<point x="-99" y="769"/>
			<point x="-79" y="769" type="curve" smooth="yes"/>
			<point x="-56" y="769"/>
			<point x="-42" y="759"/>
			<point x="-16" y="741" type="curve" smooth="yes"/>
			<point x="4" y="727"/>
			<point x="32" y="714"/>
			<point x="79" y="714" type="curve" smooth="yes"/>
			<point x="153" y="714"/>
			<point x="186" y="748"/>
			<point x="186" y="817" type="curve" smooth="yes"/>
			<point x="186" y="828" type="line"/>
			<point x="111" y="828" type="line"/>
			<point x="111" y="817" type="line" smooth="yes"/>
			<point x="111" y="795"/>
			<point x="99" y="785"/>
			<point x="79" y="785" type="curve" smooth="yes"/>
			<point x="56" y="785"/>
			<point x="39" y="795"/>
			<point x="19" y="810" type="curve" smooth="yes"/>
			<point x="-4" y="827"/>
			<point x="-27" y="840"/>
			<point x="-79" y="840" type="curve" smooth="yes"/>
			<point x="-153" y="840"/>
			<point x="-186" y="806"/>
		</contour>
	</outline>
</glyph>
<glyph name="zero.alt" format="2">
	<advance width="660"/>
	<outline>
		<component base="zero"/>
		<contour>
			<point x="330" y="261" type="curve" smooth="yes"/>
			<point x="377" y="261"/>
			<point x="394" y="278"/>
			<point x="394" y="325" type="curve" smooth="yes"/>
			<point x="394" y="372"/>
			<point x="377" y="389"/>
			<point x="330" y="389" type="curve" smooth="yes"/>
			<point x="283" y="389"/>
			<point x="266" y="372"/>
			<point x="266" y="325" type="curve" smooth="yes"/>
			<point x="266" y="278"/>
			<point x="283" y="261"/>
		</contour>
	</outline>
</glyph>
